<?xml version="1.0" encoding="UTF-8" standalone="no"?>
<svg width="420px" height="65px" viewBox="0 0 420 65" version="1.1" xmlns="http://www.w3.org/2000/svg" xmlns:xlink="http://www.w3.org/1999/xlink" xmlns:sketch="http://www.bohemiancoding.com/sketch/ns">
    <!-- Generator: Sketch 3.4.4 (17248) - http://www.bohemiancoding.com/sketch -->
    <title>Logo</title>
    <desc>Created with Sketch.</desc>
    <defs></defs>
    <g id="Welcome" stroke="none" stroke-width="1" fill="none" fill-rule="evenodd" sketch:type="MSPage">
        <g id="LOGO" sketch:type="MSArtboardGroup" transform="translate(-507.000000, -163.000000)">
            <g id="Logo" sketch:type="MSLayerGroup" transform="translate(507.000000, 163.000000)">
                <rect id="Rectangle-25-Copy-2" stroke="#FBD339" fill="#FFFFFF" sketch:type="MSShapeGroup" x="243" y="0" width="177" height="65"></rect>
                <path d="M24.992,9.016 L24.992,43 L21.536,43 L21.536,12.184 L3.968,12.184 L3.968,43 L0.512,43 L0.512,9.016 L24.992,9.016 Z M53.644,31.768 C53.644,33.4640085 53.348003,35.0319928 52.756,36.472 C52.163997,37.9120072 51.3400053,39.1599947 50.284,40.216 C49.2279947,41.2720053 47.9640074,42.095997 46.492,42.688 C45.0199926,43.280003 43.4040088,43.576 41.644,43.576 C39.9159914,43.576 38.3160074,43.280003 36.844,42.688 C35.3719926,42.095997 34.1080053,41.2720053 33.052,40.216 C31.9959947,39.1599947 31.172003,37.9120072 30.58,36.472 C29.987997,35.0319928 29.692,33.4640085 29.692,31.768 C29.692,30.0719915 29.987997,28.5040072 30.58,27.064 C31.172003,25.6239928 31.9959947,24.3760053 33.052,23.32 C34.1080053,22.2639947 35.3719926,21.440003 36.844,20.848 C38.3160074,20.255997 39.9159914,19.96 41.644,19.96 C43.4040088,19.96 45.0199926,20.255997 46.492,20.848 C47.9640074,21.440003 49.2279947,22.2639947 50.284,23.32 C51.3400053,24.3760053 52.163997,25.6239928 52.756,27.064 C53.348003,28.5040072 53.644,30.0719915 53.644,31.768 L53.644,31.768 Z M50.188,31.768 C50.188,30.5199938 49.988002,29.3440055 49.588,28.24 C49.187998,27.1359945 48.6200037,26.1760041 47.884,25.36 C47.1479963,24.5439959 46.2520053,23.8960024 45.196,23.416 C44.1399947,22.9359976 42.9560066,22.696 41.644,22.696 C40.3319934,22.696 39.1560052,22.9359976 38.116,23.416 C37.0759948,23.8960024 36.1880037,24.5439959 35.452,25.36 C34.7159963,26.1760041 34.148002,27.1359945 33.748,28.24 C33.347998,29.3440055 33.148,30.5199938 33.148,31.768 C33.148,33.0160062 33.347998,34.1919945 33.748,35.296 C34.148002,36.4000055 34.7159963,37.3599959 35.452,38.176 C36.1880037,38.9920041 37.0759948,39.6319977 38.116,40.096 C39.1560052,40.5600023 40.3319934,40.792 41.644,40.792 C42.9560066,40.792 44.1399947,40.5600023 45.196,40.096 C46.2520053,39.6319977 47.1479963,38.9920041 47.884,38.176 C48.6200037,37.3599959 49.187998,36.4000055 49.588,35.296 C49.988002,34.1919945 50.188,33.0160062 50.188,31.768 L50.188,31.768 Z M73.416,43 L65.976,24.472 L58.2,43 L54.792,43 L64.632,20.536 L67.512,20.536 L76.728,43 L73.416,43 Z M83.82,43 L80.556,43 L80.556,20.536 L83.82,20.536 L83.82,43 Z M84.492,11.896 C84.492,12.5680034 84.2520024,13.1199978 83.772,13.552 C83.2919976,13.9840022 82.7640029,14.2 82.188,14.2 C81.6119971,14.2 81.0840024,13.9840022 80.604,13.552 C80.1239976,13.1199978 79.884,12.5680034 79.884,11.896 C79.884,11.2239966 80.1239976,10.6720022 80.604,10.24 C81.0840024,9.80799784 81.6119971,9.592 82.188,9.592 C82.7640029,9.592 83.2919976,9.80799784 83.772,10.24 C84.2520024,10.6720022 84.492,11.2239966 84.492,11.896 L84.492,11.896 Z M87.168,20.536 L106.896,20.536 L106.896,23.272 L98.4,23.272 L98.4,43 L95.136,43 L95.136,23.272 L87.168,23.272 L87.168,20.536 Z M127.14,24.712 L113.364,43 L110.004,43 L110.004,20.536 L113.364,20.536 L113.364,38.152 L127.14,20.536 L130.5,20.536 L130.5,43 L127.14,43 L127.14,24.712 Z M135.528,20.536 L138.792,20.536 L138.792,23.8 C138.792,25.2720074 138.84,26.5199949 138.936,27.544 C139.032,28.5680051 139.295998,29.4079967 139.728,30.064 C140.160002,30.7200033 140.839995,31.1919986 141.768,31.48 C142.696005,31.7680014 143.975992,31.912 145.608,31.912 L150.504,31.912 L150.504,20.536 L153.768,20.536 L153.768,43 L150.504,43 L150.504,34.648 L145.56,34.648 C143.47999,34.648 141.784007,34.4560019 140.472,34.072 C139.159993,33.6879981 138.136004,33.1120038 137.4,32.344 C136.663996,31.5759962 136.168001,30.6240057 135.912,29.488 C135.655999,28.3519943 135.528,27.0480074 135.528,25.576 L135.528,20.536 Z M163.788,43 L160.524,43 L160.524,20.536 L163.788,20.536 L163.788,29.608 L176.604,29.608 L176.604,20.536 L179.868,20.536 L179.868,43 L176.604,43 L176.604,32.344 L163.788,32.344 L163.788,43 Z M203.76,24.712 L189.984,43 L186.624,43 L186.624,20.536 L189.984,20.536 L189.984,38.152 L203.76,20.536 L207.12,20.536 L207.12,43 L203.76,43 L203.76,24.712 Z M231.012,24.712 L217.236,43 L213.876,43 L213.876,20.536 L217.236,20.536 L217.236,38.152 L231.012,20.536 L234.372,20.536 L234.372,43 L231.012,43 L231.012,24.712 Z M219.348,9.256 C219.796002,10.5680066 220.403996,11.5999962 221.172,12.352 C221.940004,13.1040038 222.995993,13.48 224.34,13.48 C225.748007,13.48 226.819996,13.080004 227.556,12.28 C228.292004,11.479996 228.883998,10.4720061 229.332,9.256 L231.684,10.312 C231.459999,10.9520032 231.164002,11.6079966 230.796,12.28 C230.427998,12.9520034 229.948003,13.5679972 229.356,14.128 C228.763997,14.6880028 228.052004,15.1519982 227.22,15.52 C226.387996,15.8880018 225.428005,16.072 224.34,16.072 C223.283995,16.072 222.356004,15.9120016 221.556,15.592 C220.755996,15.2719984 220.060003,14.8480026 219.468,14.32 C218.875997,13.7919974 218.380002,13.1760035 217.98,12.472 C217.579998,11.7679965 217.252001,11.0480037 216.996,10.312 L219.348,9.256 Z M254.892,43 L251.628,43 L251.628,20.536 L270.588,20.536 L270.588,43 L267.324,43 L267.324,23.272 L254.892,23.272 L254.892,43 Z M280.8,54.52 L277.536,54.52 L277.536,20.536 L280.8,20.536 L280.8,24.424 L280.944,24.424 C281.872005,22.9519926 283.111992,21.8400038 284.664,21.088 C286.216008,20.3359962 287.791992,19.96 289.392,19.96 C291.152009,19.96 292.743993,20.263997 294.168,20.872 C295.592007,21.480003 296.807995,22.3119947 297.816,23.368 C298.824005,24.4240053 299.607997,25.6719928 300.168,27.112 C300.728003,28.5520072 301.008,30.1039917 301.008,31.768 C301.008,33.4320083 300.728003,34.9839928 300.168,36.424 C299.607997,37.8640072 298.824005,39.1119947 297.816,40.168 C296.807995,41.2240053 295.592007,42.055997 294.168,42.664 C292.743993,43.272003 291.152009,43.576 289.392,43.576 C287.791992,43.576 286.216008,43.2000038 284.664,42.448 C283.111992,41.6959962 281.872005,40.616007 280.944,39.208 L280.8,39.208 L280.8,54.52 Z M297.552,31.768 C297.552,30.5199938 297.360002,29.3440055 296.976,28.24 C296.591998,27.1359945 296.040004,26.1760041 295.32,25.36 C294.599996,24.5439959 293.712005,23.8960024 292.656,23.416 C291.599995,22.9359976 290.400007,22.696 289.056,22.696 C287.807994,22.696 286.656005,22.9279977 285.6,23.392 C284.543995,23.8560023 283.632004,24.4959959 282.864,25.312 C282.095996,26.1280041 281.496002,27.0879945 281.064,28.192 C280.631998,29.2960055 280.416,30.4879936 280.416,31.768 C280.416,33.0480064 280.631998,34.2399945 281.064,35.344 C281.496002,36.4480055 282.095996,37.399996 282.864,38.2 C283.632004,39.000004 284.543995,39.6319977 285.6,40.096 C286.656005,40.5600023 287.807994,40.792 289.056,40.792 C290.400007,40.792 291.599995,40.5600023 292.656,40.096 C293.712005,39.6319977 294.599996,38.9920041 295.32,38.176 C296.040004,37.3599959 296.591998,36.4000055 296.976,35.296 C297.360002,34.1919945 297.552,33.0160062 297.552,31.768 L297.552,31.768 Z M328.836,31.768 C328.836,33.4640085 328.540003,35.0319928 327.948,36.472 C327.355997,37.9120072 326.532005,39.1599947 325.476,40.216 C324.419995,41.2720053 323.156007,42.095997 321.684,42.688 C320.211993,43.280003 318.596009,43.576 316.836,43.576 C315.107991,43.576 313.508007,43.280003 312.036,42.688 C310.563993,42.095997 309.300005,41.2720053 308.244,40.216 C307.187995,39.1599947 306.364003,37.9120072 305.772,36.472 C305.179997,35.0319928 304.884,33.4640085 304.884,31.768 C304.884,30.0719915 305.179997,28.5040072 305.772,27.064 C306.364003,25.6239928 307.187995,24.3760053 308.244,23.32 C309.300005,22.2639947 310.563993,21.440003 312.036,20.848 C313.508007,20.255997 315.107991,19.96 316.836,19.96 C318.596009,19.96 320.211993,20.255997 321.684,20.848 C323.156007,21.440003 324.419995,22.2639947 325.476,23.32 C326.532005,24.3760053 327.355997,25.6239928 327.948,27.064 C328.540003,28.5040072 328.836,30.0719915 328.836,31.768 L328.836,31.768 Z M325.38,31.768 C325.38,30.5199938 325.180002,29.3440055 324.78,28.24 C324.379998,27.1359945 323.812004,26.1760041 323.076,25.36 C322.339996,24.5439959 321.444005,23.8960024 320.388,23.416 C319.331995,22.9359976 318.148007,22.696 316.836,22.696 C315.523993,22.696 314.348005,22.9359976 313.308,23.416 C312.267995,23.8960024 311.380004,24.5439959 310.644,25.36 C309.907996,26.1760041 309.340002,27.1359945 308.94,28.24 C308.539998,29.3440055 308.34,30.5199938 308.34,31.768 C308.34,33.0160062 308.539998,34.1919945 308.94,35.296 C309.340002,36.4000055 309.907996,37.3599959 310.644,38.176 C311.380004,38.9920041 312.267995,39.6319977 313.308,40.096 C314.348005,40.5600023 315.523993,40.792 316.836,40.792 C318.148007,40.792 319.331995,40.5600023 320.388,40.096 C321.444005,39.6319977 322.339996,38.9920041 323.076,38.176 C323.812004,37.3599959 324.379998,36.4000055 324.78,35.296 C325.180002,34.1919945 325.38,33.0160062 325.38,31.768 L325.38,31.768 Z M350.52,25.672 C349.975997,24.8079957 349.184005,24.0960028 348.144,23.536 C347.103995,22.9759972 345.976006,22.696 344.76,22.696 C343.447993,22.696 342.264005,22.9279977 341.208,23.392 C340.151995,23.8560023 339.248004,24.4959959 338.496,25.312 C337.743996,26.1280041 337.168002,27.0879945 336.768,28.192 C336.367998,29.2960055 336.168,30.4879936 336.168,31.768 C336.168,33.0480064 336.367998,34.2319946 336.768,35.32 C337.168002,36.4080054 337.735996,37.3599959 338.472,38.176 C339.208004,38.9920041 340.103995,39.6319977 341.16,40.096 C342.216005,40.5600023 343.399993,40.792 344.712,40.792 C346.152007,40.792 347.367995,40.5200027 348.36,39.976 C349.352005,39.4319973 350.167997,38.7280043 350.808,37.864 L353.256,39.688 C352.295995,40.8720059 351.120007,41.8159965 349.728,42.52 C348.335993,43.2240035 346.66401,43.576 344.712,43.576 C342.887991,43.576 341.240007,43.280003 339.768,42.688 C338.295993,42.095997 337.040005,41.2720053 336,40.216 C334.959995,39.1599947 334.152003,37.9120072 333.576,36.472 C332.999997,35.0319928 332.712,33.4640085 332.712,31.768 C332.712,30.0719915 332.999997,28.5040072 333.576,27.064 C334.152003,25.6239928 334.959995,24.3760053 336,23.32 C337.040005,22.2639947 338.295993,21.440003 339.768,20.848 C341.240007,20.255997 342.887991,19.96 344.712,19.96 C346.216008,19.96 347.743992,20.2879967 349.296,20.944 C350.848008,21.6000033 352.103995,22.5679936 353.064,23.848 L350.52,25.672 Z M353.004,20.536 L372.732,20.536 L372.732,23.272 L364.236,23.272 L364.236,43 L360.972,43 L360.972,23.272 L353.004,23.272 L353.004,20.536 Z M379.344,43 L376.08,43 L376.08,20.536 L379.344,20.536 L379.344,43 Z M380.016,11.896 C380.016,12.5680034 379.776002,13.1199978 379.296,13.552 C378.815998,13.9840022 378.288003,14.2 377.712,14.2 C377.135997,14.2 376.608002,13.9840022 376.128,13.552 C375.647998,13.1199978 375.408,12.5680034 375.408,11.896 C375.408,11.2239966 375.647998,10.6720022 376.128,10.24 C376.608002,9.80799784 377.135997,9.592 377.712,9.592 C378.288003,9.592 378.815998,9.80799784 379.296,10.24 C379.776002,10.6720022 380.016,11.2239966 380.016,11.896 L380.016,11.896 Z M389.796,54.52 L386.532,54.52 L386.532,20.536 L389.796,20.536 L389.796,24.424 L389.94,24.424 C390.868005,22.9519926 392.107992,21.8400038 393.66,21.088 C395.212008,20.3359962 396.787992,19.96 398.388,19.96 C400.148009,19.96 401.739993,20.263997 403.164,20.872 C404.588007,21.480003 405.803995,22.3119947 406.812,23.368 C407.820005,24.4240053 408.603997,25.6719928 409.164,27.112 C409.724003,28.5520072 410.004,30.1039917 410.004,31.768 C410.004,33.4320083 409.724003,34.9839928 409.164,36.424 C408.603997,37.8640072 407.820005,39.1119947 406.812,40.168 C405.803995,41.2240053 404.588007,42.055997 403.164,42.664 C401.739993,43.272003 400.148009,43.576 398.388,43.576 C396.787992,43.576 395.212008,43.2000038 393.66,42.448 C392.107992,41.6959962 390.868005,40.616007 389.94,39.208 L389.796,39.208 L389.796,54.52 Z M406.548,31.768 C406.548,30.5199938 406.356002,29.3440055 405.972,28.24 C405.587998,27.1359945 405.036004,26.1760041 404.316,25.36 C403.595996,24.5439959 402.708005,23.8960024 401.652,23.416 C400.595995,22.9359976 399.396007,22.696 398.052,22.696 C396.803994,22.696 395.652005,22.9279977 394.596,23.392 C393.539995,23.8560023 392.628004,24.4959959 391.86,25.312 C391.091996,26.1280041 390.492002,27.0879945 390.06,28.192 C389.627998,29.2960055 389.412,30.4879936 389.412,31.768 C389.412,33.0480064 389.627998,34.2399945 390.06,35.344 C390.492002,36.4480055 391.091996,37.399996 391.86,38.2 C392.628004,39.000004 393.539995,39.6319977 394.596,40.096 C395.652005,40.5600023 396.803994,40.792 398.052,40.792 C399.396007,40.792 400.595995,40.5600023 401.652,40.096 C402.708005,39.6319977 403.595996,38.9920041 404.316,38.176 C405.036004,37.3599959 405.587998,36.4000055 405.972,35.296 C406.356002,34.1919945 406.548,33.0160062 406.548,31.768 L406.548,31.768 Z" id="Політичний-простір-Copy-2" fill="#2D698D" sketch:type="MSShapeGroup"></path>
            </g>
        </g>
    </g>
</svg>